<svg xmlns="http://www.w3.org/2000/svg" xmlns:xlink="http://www.w3.org/1999/xlink" width="500" zoomAndPan="magnify" viewBox="0 0 375 374.999991" height="500" preserveAspectRatio="xMidYMid meet" version="1.0"><defs><g/><clipPath id="6b0269ffe3"><path d="M 75.605469 0 L 300 0 C 319.890625 0 338.96875 7.902344 353.03125 21.96875 C 367.097656 36.03125 375 55.109375 375 75 L 375 300.605469 C 375 320.5 367.097656 339.574219 353.03125 353.640625 C 338.96875 367.707031 319.890625 375.605469 300 375.605469 L 75.605469 375.605469 C 55.714844 375.605469 36.636719 367.707031 22.570312 353.640625 C 8.507812 339.574219 0.605469 320.5 0.605469 300.605469 L 0.605469 75 C 0.605469 55.109375 8.507812 36.03125 22.570312 21.96875 C 36.636719 7.902344 55.714844 0 75.605469 0 Z M 75.605469 0 " clip-rule="nonzero"/></clipPath><clipPath id="bc82ae5cf8"><path d="M 122.53125 110.660156 L 170.53125 110.660156 L 170.53125 255.410156 L 122.53125 255.410156 Z M 122.53125 110.660156 " clip-rule="nonzero"/></clipPath></defs><g clip-path="url(#6b0269ffe3)"><path fill="#180040" d="M 0.605469 0 L 375 0 L 375 375.855469 L 0.605469 375.855469 Z M 0.605469 0 " fill-opacity="1" fill-rule="nonzero"/></g><path fill="#4c007b" d="M 101.828125 249.332031 C 97.886719 249.332031 95.261719 248.019531 92.636719 245.390625 L 40.105469 192.863281 C 34.851562 187.609375 34.851562 179.730469 40.105469 174.476562 L 92.636719 121.949219 C 97.886719 116.695312 105.769531 116.695312 111.019531 121.949219 C 116.273438 127.199219 116.273438 135.082031 111.019531 140.332031 L 67.683594 183.671875 L 111.019531 227.007812 C 116.273438 232.261719 116.273438 240.140625 111.019531 245.390625 C 108.394531 248.019531 105.769531 249.332031 101.828125 249.332031 Z M 101.828125 249.332031 " fill-opacity="1" fill-rule="nonzero"/><path fill="#9a01f8" d="M 99.683594 243.523438 C 96.105469 243.523438 93.71875 242.328125 91.332031 239.945312 L 43.617188 192.226562 C 38.84375 187.457031 38.84375 180.296875 43.617188 175.527344 L 91.332031 127.808594 C 96.105469 123.039062 103.261719 123.039062 108.035156 127.808594 C 112.804688 132.582031 112.804688 139.738281 108.035156 144.511719 L 68.667969 183.875 L 108.035156 223.242188 C 112.804688 228.015625 112.804688 235.171875 108.035156 239.945312 C 105.648438 242.328125 103.261719 243.523438 99.683594 243.523438 Z M 99.683594 243.523438 " fill-opacity="1" fill-rule="nonzero"/><path stroke-linecap="butt" transform="matrix(3.289459, 0, 0, 3.289459, 118.488052, 1.78234)" fill="none" stroke-linejoin="miter" d="M 26.716563 42.99686 L 25.867497 42.99686 C 24.241802 42.99686 22.597108 43.433861 20.933413 44.307865 C 19.270905 45.183057 17.842336 46.279124 16.647706 47.597255 C 15.453076 48.915386 14.473384 50.380767 13.709818 51.994587 C 12.946252 53.608407 12.563875 55.116538 12.563875 56.521357 L 12.563875 74.000247 L 4.803529 74.000247 L 4.803529 36.160392 L 12.563875 36.160392 L 12.563875 40.7786 C 16.678581 37.084271 21.112726 35.236513 25.867497 35.236513 L 26.716563 35.236513 C 32.999654 35.236513 37.507424 37.022521 40.242248 40.594536 L 34.107596 45.32437 C 32.901091 43.7723 30.437017 42.99686 26.716563 42.99686 Z M 26.716563 42.99686 " stroke="#4c007b" stroke-width="1.986721" stroke-opacity="1" stroke-miterlimit="4"/><g fill="#9a01f8" fill-opacity="1"><g transform="translate(118.488052, 245.202312)"><g><path d="M 87.890625 -101.984375 L 85.09375 -101.984375 C 79.738281 -101.984375 74.328125 -100.546875 68.859375 -97.671875 C 63.390625 -94.796875 58.6875 -91.1875 54.75 -86.84375 C 50.820312 -82.507812 47.601562 -77.6875 45.09375 -72.375 C 42.582031 -67.070312 41.328125 -62.113281 41.328125 -57.5 L 41.328125 0 L 15.796875 0 L 15.796875 -124.484375 L 41.328125 -124.484375 L 41.328125 -109.28125 C 54.859375 -121.4375 69.445312 -127.515625 85.09375 -127.515625 L 87.890625 -127.515625 C 108.554688 -127.515625 123.382812 -121.640625 132.375 -109.890625 L 112.203125 -94.328125 C 108.234375 -99.429688 100.128906 -101.984375 87.890625 -101.984375 Z M 87.890625 -101.984375 "/></g></g></g><path fill="#9a01f8" d="M 168.964844 121.914062 C 165.359375 121.914062 162.4375 124.835938 162.4375 128.4375 L 162.4375 237.859375 C 162.4375 241.460938 165.359375 244.382812 168.964844 244.382812 L 168.964844 254.128906 L 124.070312 254.128906 L 124.070312 244.382812 C 127.671875 244.382812 130.59375 241.460938 130.59375 237.859375 L 130.59375 128.441406 C 130.59375 124.839844 127.671875 121.917969 124.070312 121.917969 L 124.070312 112.167969 L 168.964844 112.167969 Z M 168.964844 121.914062 " fill-opacity="1" fill-rule="nonzero"/><g clip-path="url(#bc82ae5cf8)"><path fill="#4c007b" d="M 170.472656 255.644531 L 122.5625 255.644531 L 122.5625 242.882812 L 124.070312 242.882812 C 126.835938 242.882812 129.085938 240.628906 129.085938 237.863281 L 129.085938 128.441406 C 129.085938 125.671875 126.835938 123.425781 124.070312 123.425781 L 122.5625 123.425781 L 122.5625 110.660156 L 170.472656 110.660156 L 170.472656 123.421875 L 168.964844 123.421875 C 166.195312 123.421875 163.945312 125.671875 163.945312 128.4375 L 163.945312 237.859375 C 163.945312 240.625 166.199219 242.875 168.964844 242.875 L 170.472656 242.875 Z M 125.578125 252.628906 L 167.457031 252.628906 L 167.457031 245.757812 C 163.746094 245.046875 160.929688 241.777344 160.929688 237.863281 L 160.929688 128.441406 C 160.929688 124.527344 163.746094 121.257812 167.457031 120.550781 L 167.457031 113.675781 L 125.578125 113.675781 L 125.578125 120.546875 C 129.289062 121.257812 132.101562 124.523438 132.101562 128.4375 L 132.101562 237.859375 C 132.101562 241.773438 129.289062 245.042969 125.578125 245.75 Z M 125.578125 252.628906 " fill-opacity="1" fill-rule="nonzero"/></g><path fill="#4c007b" d="M 271.726562 124.367188 C 275.667969 124.367188 278.292969 125.679688 280.921875 128.308594 L 333.449219 180.835938 C 338.703125 186.089844 338.703125 193.96875 333.449219 199.222656 L 280.921875 251.753906 C 275.667969 257.003906 267.789062 257.003906 262.535156 251.753906 C 257.28125 246.5 257.28125 238.621094 262.535156 233.367188 L 305.871094 190.03125 L 262.535156 146.691406 C 257.28125 141.441406 257.28125 133.5625 262.535156 128.308594 C 265.160156 125.679688 267.789062 124.367188 271.726562 124.367188 Z M 271.726562 124.367188 " fill-opacity="1" fill-rule="nonzero"/><path fill="#9a01f8" d="M 273.863281 130.167969 C 277.441406 130.167969 279.828125 131.359375 282.210938 133.746094 L 329.929688 181.464844 C 334.699219 186.234375 334.699219 193.390625 329.929688 198.164062 L 282.210938 245.878906 C 277.441406 250.652344 270.285156 250.652344 265.511719 245.878906 C 260.738281 241.109375 260.738281 233.953125 265.511719 229.179688 L 304.878906 189.8125 L 265.511719 150.445312 C 260.738281 145.675781 260.738281 138.519531 265.511719 133.746094 C 267.898438 131.359375 270.285156 130.167969 273.863281 130.167969 Z M 273.863281 130.167969 " fill-opacity="1" fill-rule="nonzero"/><path stroke-linecap="butt" transform="matrix(0, 0.75, -0.75, 0, 157.984521, 113.463905)" fill="none" stroke-linejoin="miter" d="M 0.00125227 1.500194 L 186.433556 1.500194 " stroke="#4c007b" stroke-width="3" stroke-opacity="1" stroke-miterlimit="4"/><path stroke-linecap="butt" transform="matrix(0, 0.75, -0.75, 0, 137.957895, 113.463905)" fill="none" stroke-linejoin="miter" d="M 0.00125227 1.501151 L 186.433556 1.501151 " stroke="#4c007b" stroke-width="3" stroke-opacity="1" stroke-miterlimit="4"/><path stroke-linecap="butt" transform="matrix(0, 0.75, -0.75, 0, 144.273833, 113.463905)" fill="none" stroke-linejoin="miter" d="M 0.00125227 1.500527 L 186.433556 1.500527 " stroke="#4c007b" stroke-width="3" stroke-opacity="1" stroke-miterlimit="4"/><path stroke-linecap="butt" transform="matrix(0, 0.75, -0.75, 0, 151.129171, 113.463905)" fill="none" stroke-linejoin="miter" d="M 0.00125227 1.500353 L 186.433556 1.500353 " stroke="#4c007b" stroke-width="3" stroke-opacity="1" stroke-miterlimit="4"/></svg>